<svg xmlns="http://www.w3.org/2000/svg" width="33" height="33" viewBox="0 0 33 33" fill="none">
  <path d="M20.1922 15.8295L8.77734 13.8186V28.6779C8.77721 28.8394 8.80895 28.9993 8.87076 29.1485C8.93256 29.2978 9.02321 29.4333 9.13751 29.5474C9.2518 29.6615 9.3875 29.7519 9.53681 29.8135C9.68613 29.875 9.84612 29.9065 10.0076 29.9061H29.7045C29.8662 29.9068 30.0264 29.8755 30.1759 29.8141C30.3255 29.7526 30.4614 29.6623 30.576 29.5481C30.6905 29.434 30.7813 29.2984 30.8432 29.149C30.9052 28.9997 30.937 28.8396 30.9368 28.6779V23.203L20.1922 15.8295Z" fill="#185C37"/>
  <path d="M20.1922 3.09375H10.0076C9.84612 3.09335 9.68613 3.12482 9.53681 3.18638C9.3875 3.24793 9.2518 3.33835 9.13751 3.45246C9.02321 3.56656 8.93256 3.70211 8.87076 3.85132C8.80895 4.00053 8.77721 4.16047 8.77734 4.32197V9.79688L20.1922 16.5L26.2364 18.5109L30.9368 16.5V9.79688L20.1922 3.09375Z" fill="#21A366"/>
  <path d="M8.77734 9.79688H20.1922V16.5H8.77734V9.79688Z" fill="#107C41"/>
  <path opacity="0.1" d="M16.9469 8.4563H8.77734V25.2141H16.9469C17.2724 25.2125 17.5842 25.0827 17.8147 24.8528C18.0452 24.6229 18.1758 24.3114 18.1782 23.9859V9.68452C18.1758 9.35899 18.0452 9.04754 17.8147 8.81764C17.5842 8.58774 17.2724 8.45792 16.9469 8.4563Z" fill="black"/>
  <path opacity="0.2" d="M16.2756 9.12671H8.77734V25.8845H16.2756C16.6011 25.8829 16.9129 25.7531 17.1434 25.5232C17.3738 25.2933 17.5044 24.9818 17.5069 24.6563V10.3549C17.5044 10.0294 17.3738 9.71795 17.1434 9.48805C16.9129 9.25815 16.6011 9.12833 16.2756 9.12671Z" fill="black"/>
  <path opacity="0.2" d="M16.2756 9.12671H8.77734V24.5439H16.2756C16.6011 24.5423 16.9129 24.4125 17.1434 24.1826C17.3738 23.9527 17.5044 23.6412 17.5069 23.3157V10.3549C17.5044 10.0294 17.3738 9.71795 17.1434 9.48805C16.9129 9.25815 16.6011 9.12833 16.2756 9.12671Z" fill="black"/>
  <path opacity="0.2" d="M15.6042 9.12671H8.77734V24.5439H15.6042C15.9297 24.5423 16.2415 24.4125 16.472 24.1826C16.7025 23.9527 16.8331 23.6412 16.8355 23.3157V10.3549C16.8331 10.0294 16.7025 9.71795 16.472 9.48805C16.2415 9.25815 15.9297 9.12833 15.6042 9.12671Z" fill="black"/>
  <path d="M3.29381 9.12672H15.6049C15.931 9.12644 16.2439 9.25566 16.4748 9.48596C16.7056 9.71627 16.8356 10.0288 16.8362 10.3549V22.6454C16.8356 22.9715 16.7056 23.284 16.4748 23.5143C16.2439 23.7446 15.931 23.8739 15.6049 23.8736H3.29381C3.13222 23.8741 2.97212 23.8428 2.82268 23.7813C2.67325 23.7198 2.53743 23.6294 2.42303 23.5153C2.30862 23.4011 2.21788 23.2655 2.15601 23.1163C2.09414 22.967 2.06236 22.807 2.0625 22.6454V10.3549C2.06236 10.1933 2.09414 10.0333 2.15601 9.88404C2.21788 9.73476 2.30862 9.59917 2.42303 9.48505C2.53743 9.37093 2.67325 9.28053 2.82268 9.21904C2.97212 9.15755 3.13222 9.12617 3.29381 9.12672Z" fill="url(#paint0_linear_1_974)"/>
  <path d="M5.87695 20.4939L8.46642 16.4885L6.09455 12.5059H7.99927L9.29348 15.0561C9.41311 15.2975 9.49973 15.4769 9.53892 15.5965H9.55645C9.64102 15.4033 9.73039 15.2156 9.82458 15.0335L11.2085 12.51H12.9616L10.5289 16.47L13.0235 20.497H11.158L9.66267 17.7013C9.59344 17.581 9.53445 17.4551 9.48633 17.3249H9.46158C9.41787 17.4518 9.35974 17.5732 9.28833 17.6869L7.74867 20.4939H5.87695Z" fill="white"/>
  <path d="M29.7057 3.09376H20.1924V9.79688H30.937V4.32198C30.9371 4.16038 30.9053 4.00036 30.8435 3.85108C30.7816 3.7018 30.6909 3.56621 30.5764 3.45209C30.462 3.33798 30.3262 3.24758 30.1768 3.18608C30.0274 3.12459 29.8673 3.09321 29.7057 3.09376Z" fill="#33C481"/>
  <path d="M20.1924 16.5H30.937V23.2031H20.1924V16.5Z" fill="#107C41"/>
  <defs>
    <linearGradient id="paint0_linear_1_974" x1="4.63444" y1="8.16147" x2="14.2642" y2="24.8388" gradientUnits="userSpaceOnUse">
      <stop stop-color="#18884F"/>
      <stop offset="0.5" stop-color="#117E43"/>
      <stop offset="1" stop-color="#0B6631"/>
    </linearGradient>
  </defs>
</svg>