<svg width="932" height="235" viewBox="0 0 932 235" fill="none" xmlns="http://www.w3.org/2000/svg">
<path d="M84.2446 203.957V206.999H74.7236V234.374H71.1606V206.999H61.6406V203.957H84.2446ZM121.984 220.04V231.415H137.484V234.374H118.422V203.957H137.151V206.915H121.984V217.082H135.359V220.04H121.984ZM184.785 234.811C182.119 234.811 179.744 234.202 177.66 232.978C175.587 231.759 173.962 229.973 172.785 227.624C171.603 225.28 171.015 222.457 171.015 219.165C171.015 215.874 171.603 213.056 172.785 210.707C173.962 208.363 175.587 206.577 177.66 205.353C179.744 204.134 182.119 203.52 184.785 203.52C187.629 203.52 189.994 204.061 191.869 205.145C193.754 206.217 195.119 207.832 195.952 209.999L193.66 211.52H193.14C192.306 209.785 191.223 208.556 189.89 207.832C188.567 207.098 186.869 206.728 184.785 206.728C182.869 206.728 181.166 207.16 179.681 208.02C178.192 208.868 177.015 210.217 176.14 212.061C175.275 213.91 174.848 216.28 174.848 219.165C174.848 222.056 175.275 224.426 176.14 226.27C177.015 228.103 178.192 229.452 179.681 230.311C181.166 231.16 182.869 231.582 184.785 231.582C186.994 231.582 188.791 231.092 190.181 230.103C191.582 229.103 192.624 227.499 193.306 225.29H193.827L196.223 226.478C195.499 229.16 194.16 231.223 192.202 232.665C190.254 234.098 187.785 234.811 184.785 234.811ZM250.247 216.29V203.957H253.809V234.374H250.247V219.332H234.434V234.374H230.872V203.957H234.434V216.29H250.247ZM294.975 234.374H291.496V203.957H295.871L310.704 227.207L311.225 227.124V203.957H314.704V234.374H310.954L295.496 209.52L294.975 209.603V234.374ZM364.474 234.811C361.834 234.811 359.485 234.243 357.433 233.103C355.391 231.967 353.776 230.228 352.599 227.895C351.417 225.561 350.828 222.655 350.828 219.165C350.828 215.681 351.417 212.77 352.599 210.436C353.776 208.103 355.391 206.368 357.433 205.228C359.485 204.092 361.834 203.52 364.474 203.52C367.11 203.52 369.453 204.092 371.495 205.228C373.547 206.368 375.167 208.103 376.349 210.436C377.526 212.77 378.12 215.681 378.12 219.165C378.12 222.655 377.526 225.561 376.349 227.895C375.167 230.228 373.547 231.967 371.495 233.103C369.453 234.243 367.11 234.811 364.474 234.811ZM364.474 231.499C367.625 231.499 370.047 230.514 371.745 228.54C373.438 226.572 374.287 223.447 374.287 219.165C374.287 214.905 373.438 211.785 371.745 209.811C370.047 207.827 367.625 206.832 364.474 206.832C357.933 206.832 354.662 210.947 354.662 219.165C354.662 227.389 357.933 231.499 364.474 231.499ZM417.784 203.957V231.415H432.43V234.374H414.222V203.957H417.784ZM478.879 234.811C476.239 234.811 473.89 234.243 471.838 233.103C469.796 231.967 468.181 230.228 467.004 227.895C465.822 225.561 465.233 222.655 465.233 219.165C465.233 215.681 465.822 212.77 467.004 210.436C468.181 208.103 469.796 206.368 471.838 205.228C473.89 204.092 476.239 203.52 478.879 203.52C481.515 203.52 483.858 204.092 485.9 205.228C487.952 206.368 489.572 208.103 490.754 210.436C491.931 212.77 492.525 215.681 492.525 219.165C492.525 222.655 491.931 225.561 490.754 227.895C489.572 230.228 487.952 231.967 485.9 233.103C483.858 234.243 481.515 234.811 478.879 234.811ZM478.879 231.499C482.03 231.499 484.452 230.514 486.15 228.54C487.843 226.572 488.692 223.447 488.692 219.165C488.692 214.905 487.843 211.785 486.15 209.811C484.452 207.827 482.03 206.832 478.879 206.832C472.338 206.832 469.067 210.947 469.067 219.165C469.067 227.389 472.338 231.499 478.879 231.499ZM540.023 234.811C537.465 234.811 535.215 234.228 533.273 233.061C531.325 231.895 529.804 230.145 528.71 227.811C527.611 225.467 527.064 222.582 527.064 219.165C527.064 215.749 527.648 212.874 528.814 210.54C529.991 208.197 531.616 206.436 533.689 205.27C535.773 204.103 538.174 203.52 540.898 203.52C543.814 203.52 546.2 204.051 548.064 205.103C549.939 206.145 551.262 207.707 552.044 209.79L549.71 211.165H549.189C548.398 209.582 547.325 208.452 545.981 207.77C544.648 207.077 542.95 206.728 540.898 206.728C534.231 206.728 530.898 210.874 530.898 219.165C530.898 223.488 531.731 226.639 533.398 228.624C535.075 230.598 537.429 231.582 540.46 231.582C543.236 231.582 545.314 230.952 546.689 229.686C548.064 228.426 548.752 226.436 548.752 223.728V221.04H540.106V218.165H552.231V234.374H548.919V230.29L548.481 230.186C547.674 231.759 546.554 232.926 545.127 233.686C543.695 234.436 541.991 234.811 540.023 234.811ZM592.273 234.374H588.71V203.957H592.273V234.374ZM633.531 220.04V231.415H649.031V234.374H629.968V203.957H648.698V206.915H633.531V217.082H646.906V220.04H633.531ZM692.811 234.811C690.894 234.811 689.176 234.551 687.665 234.04C686.149 233.514 684.884 232.827 683.873 231.978C682.858 231.134 682.103 230.202 681.603 229.186L683.561 226.832H684.082C685.957 229.999 688.863 231.582 692.811 231.582C695.103 231.582 696.801 231.103 697.915 230.145C699.04 229.186 699.603 227.863 699.603 226.165C699.603 225.165 699.415 224.322 699.04 223.624C698.676 222.931 698.071 222.342 697.228 221.853C696.379 221.353 695.228 220.926 693.769 220.561L690.207 219.686C687.566 219.051 685.613 218.035 684.353 216.645C683.103 215.243 682.478 213.478 682.478 211.353C682.478 209.842 682.863 208.493 683.644 207.311C684.42 206.118 685.551 205.186 687.04 204.52C688.54 203.853 690.332 203.52 692.415 203.52C694.707 203.52 696.634 203.848 698.207 204.499C699.79 205.139 701.045 206.103 701.978 207.395L700.248 209.749H699.728C698.853 208.681 697.816 207.895 696.623 207.395C695.426 206.895 694.024 206.645 692.415 206.645C690.301 206.645 688.712 207.056 687.644 207.874C686.571 208.697 686.04 209.827 686.04 211.27C686.04 212.634 686.426 213.723 687.207 214.54C687.998 215.348 689.332 215.973 691.207 216.415L694.853 217.29C697.811 217.988 699.946 219.056 701.269 220.499C702.587 221.931 703.248 223.764 703.248 225.999C703.248 227.707 702.858 229.228 702.082 230.561C701.316 231.884 700.149 232.926 698.582 233.686C697.024 234.436 695.103 234.811 692.811 234.811Z" fill="white"/>
<path d="M775.426 151.313L808.78 96.625C805.598 97.906 802.702 98.766 800.092 99.208C797.478 99.656 794.676 99.875 791.676 99.875C786.061 99.875 780.243 98.781 774.217 96.583C768.202 94.391 763.077 91.302 758.842 87.313C754.603 83.328 751.098 78.427 748.322 72.604C745.556 66.771 744.176 60.854 744.176 54.854C744.176 46.771 745.54 39.578 748.28 33.271C751.014 26.953 754.707 21.625 759.363 17.292C764.014 12.958 769.415 9.661 775.572 7.396C781.723 5.135 788.238 4 795.113 4C801.999 4 808.426 5.15601 814.384 7.45801C820.342 9.75001 825.645 13.052 830.301 17.354C834.952 21.646 838.598 26.771 841.238 32.729C843.889 38.688 845.217 45.302 845.217 52.563C845.217 58.177 844.145 63.724 842.009 69.208C839.868 74.682 837.207 80.411 834.03 86.396L797.697 151.313H775.426ZM794.634 20.646C790.301 20.646 786.155 21.411 782.197 22.938C778.249 24.469 774.78 26.635 771.78 29.438C768.79 32.245 766.405 35.594 764.613 39.479C762.832 43.354 761.947 47.656 761.947 52.375C761.947 57.599 762.895 62.203 764.801 66.188C766.717 70.177 769.285 73.51 772.509 76.188C775.728 78.854 779.327 80.865 783.301 82.208C787.285 83.542 791.285 84.208 795.301 84.208C801.176 84.208 805.717 83.495 808.926 82.063C812.145 80.62 815.186 78.615 818.051 76.042C820.926 73.458 823.186 70.177 824.842 66.188C826.493 62.203 827.322 57.599 827.322 52.375C827.322 47.406 826.493 42.948 824.842 39C823.186 35.042 820.895 31.708 817.967 29C815.035 26.292 811.577 24.224 807.592 22.792C803.603 21.365 799.285 20.646 794.634 20.646Z" fill="#E6D366"/>
<path d="M881.78 29.2549V4.25488H872.32V0.796875H895.26V4.25488H885.8V29.2549H881.78ZM903.29 29.2549V0.796875H909.94L917.52 24.0679L925.1 0.796875H931.75V29.2549H927.75V4.96387L919.54 29.2549H915.56L907.31 4.96387V29.2549H903.29ZM40.4727 11.3619C56.9827 11.3619 69.9926 14.2779 79.4926 20.1119C89.0036 25.9349 93.7637 36.2679 93.7637 51.1119C93.7637 66.2369 88.7956 76.7159 78.8676 82.5489C68.9516 88.3719 55.7327 91.2779 39.2227 91.2779H15.0766V160.799H0.0976562V11.3619H40.4727ZM39.8477 76.7159C47.8997 76.7159 54.7016 75.9869 60.2426 74.5279C65.7956 73.0699 70.1647 70.4759 73.3477 66.7369C76.5397 62.9869 78.1387 57.7779 78.1387 51.1119C78.1387 41.6849 74.9096 35.1269 68.4516 31.4449C62.0036 27.7679 53.0247 25.9239 41.5137 25.9239H15.0766V76.7159H39.8477ZM141.208 11.3619H156.187V160.799H141.208V11.3619ZM230.282 11.3619V146.237H287.74V160.799H215.302V11.3619H230.282ZM349.539 11.3619V146.237H406.997V160.799H334.56V11.3619H349.539ZM563.713 160.799L540.817 111.674H475.255L452.359 160.799H436.755L506.484 11.3619H510.005L579.317 160.799H563.713ZM481.921 97.5279H534.15L508.15 41.5489L481.921 97.5279ZM664.234 11.3619C681.302 11.3619 694.068 14.9029 702.526 21.9869C710.995 29.0599 715.234 38.7679 715.234 51.1119C715.234 60.0019 713.078 67.4349 708.776 73.4029C704.469 79.3619 698.427 83.8359 690.651 86.8199C682.885 89.7939 673.802 91.2779 663.401 91.2779L717.318 160.799H698.776L645.922 91.2779H636.547V160.799H621.568V11.3619H664.234ZM663.401 76.7159C674.911 76.7159 683.823 74.6429 690.13 70.4869C696.448 66.3199 699.609 59.8619 699.609 51.1119C699.609 43.4869 696.901 37.3829 691.484 32.7989C686.078 28.2159 677.969 25.9239 667.151 25.9239H636.547V76.7159H663.401Z" fill="white"/>
</svg>
