<svg xmlns="http://www.w3.org/2000/svg" width="34" height="34" viewBox="0 0 34 34" fill="none">
  <path d="M25.6059 2.20154L31.5177 8.36404V31.7985H9.43359V31.875H31.5931V8.4416L25.6059 2.20154Z" fill="#909090"/>
  <path d="M25.5338 2.125H9.35938V31.7985H31.5189V8.36506L25.5338 2.125Z" fill="#F4F4F4"/>
  <path d="M9.1966 3.71875H2.40723V10.9724H23.7635V3.71875H9.1966Z" fill="#7A7B7C"/>
  <path d="M23.8758 10.8491H2.54395V3.59009H23.8758V10.8491Z" fill="#DD2025"/>
  <path d="M9.6172 4.81734H8.22852V9.91733H9.32077V8.19715L9.56195 8.21096C9.79639 8.20773 10.0287 8.16572 10.2494 8.08665C10.4434 8.02077 10.6218 7.9155 10.7732 7.77746C10.9285 7.64724 11.0505 7.48188 11.1291 7.29509C11.2367 6.98559 11.2748 6.65621 11.2407 6.33034C11.2346 6.09749 11.1938 5.86686 11.1196 5.64609C11.0527 5.48651 10.9532 5.34265 10.8275 5.22373C10.7018 5.10481 10.5527 5.01344 10.3896 4.95546C10.2491 4.9034 10.1034 4.86636 9.95508 4.84496C9.84302 4.82671 9.72968 4.81747 9.61614 4.81734M9.41533 7.25471H9.32077V5.68221H9.52583C9.61633 5.67568 9.70715 5.68958 9.79156 5.72286C9.87597 5.75615 9.95183 5.80798 10.0135 5.87452C10.1414 6.0456 10.2096 6.25384 10.208 6.4674C10.208 6.72877 10.208 6.96571 9.97208 7.13252C9.80219 7.2261 9.60874 7.26925 9.41533 7.25471ZM13.3158 4.80352C13.1978 4.80352 13.0831 4.81202 13.0023 4.81521L12.7495 4.82159H11.9207V9.92159H12.8961C13.2688 9.93117 13.6398 9.86801 13.9883 9.73565C14.269 9.62482 14.5173 9.44547 14.7108 9.21396C14.9004 8.98143 15.0358 8.70957 15.1071 8.41815C15.1909 8.08869 15.2317 7.74976 15.2283 7.40984C15.2491 7.00838 15.218 6.60591 15.1358 6.2124C15.0572 5.92307 14.9116 5.65629 14.7108 5.43359C14.5534 5.2535 14.3597 5.10868 14.1424 5.00859C13.9563 4.92231 13.7604 4.85881 13.5591 4.81946C13.479 4.80634 13.398 4.80029 13.3168 4.8014M13.1235 8.98446H13.0172V5.72896H13.031C13.2501 5.70363 13.4717 5.74316 13.6685 5.84265C13.8127 5.95774 13.9301 6.10275 14.0128 6.26765C14.102 6.44119 14.1534 6.63167 14.1636 6.82652C14.1732 7.06027 14.1636 7.25152 14.1636 7.40984C14.1676 7.59219 14.1558 7.77455 14.1286 7.9549C14.0952 8.13984 14.0346 8.31885 13.949 8.48615C13.8523 8.64217 13.7201 8.77321 13.5633 8.86865C13.4323 8.95365 13.277 8.99323 13.1213 8.98127M18.5188 4.82159H15.937V9.92159H17.0292V7.89859H18.4105V6.95083H17.0292V5.76934H18.5167V4.82159" fill="#464648"/>
  <path d="M23.1417 21.521C23.1417 21.521 26.529 20.9069 26.529 22.0639C26.529 23.221 24.4306 22.7503 23.1417 21.521ZM20.6374 21.6092C20.0992 21.7278 19.5747 21.9019 19.0724 22.1287L19.4974 21.1725C19.9224 20.2162 20.3633 18.9125 20.3633 18.9125C20.8692 19.7669 21.4593 20.5685 22.1249 21.3053C21.6239 21.3799 21.1273 21.4821 20.6374 21.6113V21.6092ZM19.2966 14.7029C19.2966 13.6946 19.6227 13.4194 19.8767 13.4194C20.1306 13.4194 20.4164 13.5416 20.426 14.4171C20.3431 15.2974 20.1588 16.1652 19.8767 17.0032C19.4889 16.3001 19.2887 15.509 19.2955 14.7061L19.2966 14.7029ZM14.357 25.8762C13.3179 25.2546 16.5362 23.341 17.1195 23.2794C17.1163 23.2805 15.445 26.5264 14.357 25.8762ZM27.5182 22.201C27.5076 22.0947 27.4119 20.9185 25.3188 20.9685C24.4463 20.9532 23.5742 21.0147 22.7125 21.1523C21.8772 20.3116 21.1583 19.3628 20.5747 18.3314C20.9422 17.2681 21.1648 16.1602 21.2367 15.0376C21.2059 13.7626 20.9009 13.0316 19.9234 13.0422C18.9459 13.0529 18.8036 13.9082 18.9321 15.181C19.0579 16.0364 19.2955 16.8716 19.6387 17.6652C19.6387 17.6652 19.1871 19.0709 18.59 20.4691C17.9929 21.8674 17.5849 22.6005 17.5849 22.6005C16.5464 22.9381 15.5688 23.4404 14.6896 24.088C13.8141 24.9029 13.4581 25.5287 13.9192 26.1545C14.3166 26.6943 15.7074 26.8165 16.9506 25.1877C17.6099 24.3456 18.2133 23.4611 18.7568 22.5399C18.7568 22.5399 20.6523 22.0204 21.242 21.878C21.8317 21.7356 22.5446 21.623 22.5446 21.623C22.5446 21.623 24.2754 23.3644 25.9446 23.3028C27.6138 23.2412 27.5331 22.3051 27.5224 22.2031" fill="#DD2025"/>
  <path d="M25.4502 2.20667V8.44673H31.4353L25.4502 2.20667Z" fill="#909090"/>
  <path d="M25.5332 2.125V8.36506H31.5183L25.5332 2.125Z" fill="#F4F4F4"/>
  <path d="M9.53615 4.73555H8.14746V9.83555H9.24396V8.11642L9.48621 8.13024C9.72065 8.12701 9.95293 8.085 10.1736 8.00592C10.3677 7.94004 10.546 7.83478 10.6975 7.69674C10.8516 7.56616 10.9725 7.40083 11.0502 7.21436C11.1578 6.90487 11.1959 6.57548 11.1618 6.24961C11.1557 6.01677 11.1149 5.78614 11.0406 5.56536C10.9737 5.40578 10.8743 5.26193 10.7486 5.14301C10.6229 5.02408 10.4737 4.93271 10.3107 4.87474C10.1695 4.82217 10.0231 4.78477 9.87402 4.76317C9.76196 4.74492 9.64862 4.73569 9.53509 4.73555M9.33427 7.17292H9.23971V5.60042H9.44584C9.53634 5.5939 9.62715 5.60779 9.71157 5.64108C9.79598 5.67436 9.87183 5.72619 9.93352 5.79274C10.0614 5.96381 10.1297 6.17205 10.128 6.38561C10.128 6.64699 10.128 6.88392 9.89209 7.05074C9.7222 7.14431 9.52874 7.1864 9.33534 7.17186M13.2347 4.72174C13.1168 4.72174 13.002 4.73024 12.9213 4.73342L12.6716 4.7398H11.8428V9.8398H12.8182C13.1909 9.84938 13.5619 9.78623 13.9105 9.65386C14.1911 9.54304 14.4395 9.36368 14.633 9.13217C14.8226 8.89965 14.9579 8.62779 15.0293 8.33636C15.1131 8.00691 15.1538 7.66798 15.1504 7.32805C15.1712 6.92659 15.1401 6.52412 15.058 6.13061C14.9793 5.84128 14.8337 5.5745 14.633 5.3518C14.4755 5.17172 14.2818 5.02689 14.0645 4.9268C13.8784 4.84052 13.6825 4.77702 13.4812 4.73767C13.4011 4.72455 13.3201 4.71851 13.239 4.71961M13.0456 8.90267H12.9393V5.64717H12.9531C13.1722 5.62184 13.3939 5.66137 13.5906 5.76086C13.7348 5.87596 13.8522 6.02096 13.9349 6.18586C14.0241 6.3594 14.0755 6.54988 14.0858 6.74474C14.0953 6.97849 14.0858 7.16974 14.0858 7.32805C14.0897 7.5104 14.078 7.69276 14.0507 7.87311C14.0173 8.05805 13.9568 8.23706 13.8711 8.40436C13.7744 8.56038 13.6423 8.69142 13.4855 8.78686C13.3545 8.87187 13.1992 8.91144 13.0435 8.89949M18.4378 4.7398H15.8559V9.8398H16.9481V7.8168H18.3294V6.86905H16.9481V5.68755H18.4356V4.7398" fill="white"/>
</svg>