<svg xmlns="http://www.w3.org/2000/svg" width="15" height="16" viewBox="0 0 15 16" fill="none">
  <path d="M3.24984 11.1721V5.24475C3.72245 5.07766 4.12078 4.74887 4.37441 4.31649C4.62805 3.88412 4.72067 3.376 4.63591 2.88194C4.55114 2.38788 4.29444 1.93969 3.91118 1.61659C3.52793 1.29349 3.04279 1.11628 2.54151 1.11628C2.04023 1.11628 1.55509 1.29349 1.17183 1.61659C0.788575 1.93969 0.531879 2.38788 0.447111 2.88194C0.362344 3.376 0.454965 3.88412 0.708603 4.31649C0.962241 4.74887 1.36057 5.07766 1.83317 5.24475V11.1721C1.36057 11.3392 0.962241 11.668 0.708603 12.1003C0.454965 12.5327 0.362344 13.0408 0.447111 13.5349C0.531879 14.029 0.788575 14.4771 1.17183 14.8002C1.55509 15.1233 2.04023 15.3006 2.54151 15.3006C3.04279 15.3006 3.52793 15.1233 3.91118 14.8002C4.29444 14.4771 4.55114 14.029 4.63591 13.5349C4.72067 13.0408 4.62805 12.5327 4.37441 12.1003C4.12078 11.668 3.72245 11.3392 3.24984 11.1721ZM2.54151 2.54175C2.6816 2.54175 2.81855 2.58329 2.93504 2.66112C3.05152 2.73896 3.14231 2.84958 3.19592 2.97901C3.24954 3.10845 3.26356 3.25087 3.23623 3.38827C3.2089 3.52567 3.14144 3.65189 3.04238 3.75095C2.94331 3.85001 2.8171 3.91747 2.6797 3.9448C2.54229 3.97214 2.39987 3.95811 2.27044 3.9045C2.14101 3.85088 2.03038 3.7601 1.95255 3.64361C1.87472 3.52713 1.83317 3.39018 1.83317 3.25008C1.83317 3.06222 1.9078 2.88205 2.04064 2.74921C2.17348 2.61638 2.35365 2.54175 2.54151 2.54175ZM2.54151 13.8751C2.40141 13.8751 2.26446 13.8335 2.14798 13.7557C2.03149 13.6779 1.94071 13.5672 1.88709 13.4378C1.83348 13.3084 1.81945 13.166 1.84679 13.0286C1.87412 12.8912 1.94158 12.7649 2.04064 12.6659C2.1397 12.5668 2.26592 12.4994 2.40332 12.472C2.54072 12.4447 2.68314 12.4587 2.81258 12.5123C2.94201 12.5659 3.05263 12.6567 3.13047 12.7732C3.2083 12.8897 3.24984 13.0267 3.24984 13.1667C3.24984 13.3546 3.17521 13.5348 3.04238 13.6676C2.90954 13.8005 2.72937 13.8751 2.54151 13.8751ZM13.1665 11.1721V3.95842C13.1665 3.58269 13.0173 3.22236 12.7516 2.95668C12.4859 2.691 12.1256 2.54175 11.7498 2.54175H8.08634L9.20976 1.41833L8.20818 0.416748L6.37642 2.2485L5.37484 3.25008L6.37642 4.25166L8.20818 6.08342L9.20976 5.08183L8.08634 3.95842H11.7498V11.1721C11.2772 11.3392 10.8789 11.668 10.6253 12.1003C10.3716 12.5327 10.279 13.0408 10.3638 13.5349C10.4485 14.029 10.7052 14.4771 11.0885 14.8002C11.4718 15.1233 11.9569 15.3006 12.4582 15.3006C12.9595 15.3006 13.4446 15.1233 13.8279 14.8002C14.2111 14.4771 14.4678 14.029 14.5526 13.5349C14.6373 13.0408 14.5447 12.5327 14.2911 12.1003C14.0374 11.668 13.6391 11.3392 13.1665 11.1721ZM12.4582 13.8751C12.3181 13.8751 12.1811 13.8335 12.0646 13.7557C11.9482 13.6779 11.8574 13.5672 11.8038 13.4378C11.7501 13.3084 11.7361 13.166 11.7635 13.0286C11.7908 12.8912 11.8582 12.7649 11.9573 12.6659C12.0564 12.5668 12.1826 12.4994 12.32 12.472C12.4574 12.4447 12.5998 12.4587 12.7292 12.5123C12.8587 12.5659 12.9693 12.6567 13.0471 12.7732C13.125 12.8897 13.1665 13.0267 13.1665 13.1667C13.1665 13.3546 13.0919 13.5348 12.959 13.6676C12.8262 13.8005 12.646 13.8751 12.4582 13.8751Z" fill="#E6D366"/>
</svg>